Coordinates
version=1
nRows=22
nColumns=24
inDegrees=yes

Units are S.I. units (second, meters, Newtons, ...)
Angles are in degrees.

endheader
time	pelvis_tilt	pelvis_list	pelvis_rotation	pelvis_tx	pelvis_ty	pelvis_tz	hip_flexion_r	hip_adduction_r	hip_rotation_r	knee_angle_r	ankle_angle_r	subtalar_angle_r	mtp_angle_r	hip_flexion_l	hip_adduction_l	hip_rotation_l	knee_angle_l	ankle_angle_l	subtalar_angle_l	mtp_angle_l	lumbar_extension	lumbar_bending	lumbar_rotation
      5.51000000	      2.96598841	      6.83834106	      6.32288664	     -2.46144439	      0.87773353	      0.16692258	     15.87235974	     -4.80754311	     -9.04654979	     -2.91577887	      7.83452326	      7.00626171	      0.00000000	    -16.18117027	     10.85713423	     17.37006299	    -14.99302090	     16.74642433	     -4.64026560	      0.00000000	    -25.70276180	     -2.58889708	    -14.01345531
      5.52000000	      3.01958100	      6.73820763	      6.39059728	     -2.44982309	      0.87797056	      0.16765487	     15.77775287	     -4.57800574	     -8.24877493	     -4.11094516	      7.19392020	      6.01422660	      0.00000000	    -16.14103772	     10.64142578	     16.19826387	    -16.51356489	     16.23199146	     -3.07217630	      0.00000000	    -25.45127332	     -2.46643820	    -14.05288690
      5.53000000	      3.17547062	      6.64540066	      6.34169750	     -2.43810845	      0.87846550	      0.16859000	     15.51267165	     -4.29469571	     -6.94657939	     -5.23692493	      6.24669430	      4.54837933	      0.00000000	    -16.10575211	     10.44009073	     14.96708575	    -18.17226720	     15.35492948	     -1.70430378	      0.00000000	    -25.32741611	     -2.37231979	    -14.01267145
      5.54000000	      3.33734247	      6.51938840	      6.31904335	     -2.42613096	      0.87918938	      0.16959560	     15.16478033	     -3.97128097	     -5.79651667	     -6.29819786	      5.32882013	      3.33603783	      0.00000000	    -15.91941546	     10.15848411	     13.49859577	    -20.05896321	     14.13816773	     -0.27526256	      0.00000000	    -25.14702358	     -2.25864130	    -14.00359396
      5.55000000	      3.42887820	      6.31793426	      6.19856521	     -2.41409275	      0.87995058	      0.17074756	     14.85740862	     -3.52930202	     -4.39382926	     -7.27246557	      4.20982321	      1.80122722	      0.00000000	    -15.45825377	      9.81800394	     11.89447768	    -22.21402622	     12.62933266	      1.05607057	      0.00000000	    -24.86117102	     -2.08456786	    -13.76005318
      5.56000000	      3.61466581	      6.10078165	      6.15198971	     -2.40223358	      0.88095641	      0.17190048	     14.46987655	     -3.09893039	     -3.53276334	     -8.31594727	      3.55277564	      0.98367915	      0.00000000	    -14.83541808	      9.37092392	     10.13641100	    -24.73900183	     10.92704920	      2.58666390	      0.00000000	    -24.75390041	     -1.86523788	    -13.60376964
      5.57000000	      3.68886642	      5.86139822	      6.05786170	     -2.39030266	      0.88187278	      0.17324117	     14.12817461	     -2.61321336	     -2.39695210	     -9.22759802	      3.00451163	     -0.13731699	      0.00000000	    -13.90101538	      8.87734959	      8.32616540	    -27.50553842	      8.80474630	      3.82489878	      0.00000000	    -24.47416636	     -1.69209014	    -13.35470115
      5.58000000	      3.86707049	      5.53777062	      6.02658080	     -2.37849849	      0.88294472	      0.17447434	     13.66129523	     -2.07024265	     -1.75873017	    -10.13360453	      2.95209875	     -0.60564682	      0.00000000	    -12.86630844	      8.21588597	      6.60087797	    -30.53864071	      6.48201626	      4.99778110	      0.00000000	    -24.34344245	     -1.37476793	    -13.19974754
      5.59000000	      3.86538590	      5.19300046	      5.90633992	     -2.36713555	      0.88365070	      0.17584522	     13.42126002	     -1.47969461	     -0.83818118	    -11.03467231	      2.99266070	     -1.38244821	      0.00000000	    -11.40347739	      7.56411982	      4.99405192	    -33.85580971	      3.94167200	      5.79575857	      0.00000000	    -24.10298122	     -1.07854366	    -12.84348448
      5.60000000	      3.81452222	      4.84387117	      5.85143409	     -2.35591807	      0.88420084	      0.17719593	     13.17169447	     -0.89402934	     -0.12152685	    -11.83579235	      3.39520720	     -2.03330669	      0.00000000	     -9.73633472	      6.86519686	      3.58817079	    -37.32801645	      1.18115010	      6.25513252	      0.00000000	    -23.81311021	     -0.81288425	    -12.56242746
      5.61000000	      3.78064814	      4.40544710	      5.82977940	     -2.34503183	      0.88461106	      0.17842064	     12.89084416	     -0.23096495	      0.34115086	    -12.57795662	      4.03013668	     -2.45870562	      0.00000000	     -7.93258437	      6.07009781	      2.42550866	    -40.94076980	     -1.62928002	      6.36468828	      0.00000000	    -23.60944417	     -0.41679277	    -12.22873385
      5.62000000	      3.73627551	      3.92332750	      5.83389331	     -2.33443271	      0.88485341	      0.17958261	     12.58058100	      0.47057767	      0.65553244	    -13.21110299	      4.80918194	     -2.78591733	      0.00000000	     -6.00615770	      5.23690792	      1.48843917	    -44.60655312	     -4.47549357	      6.12962776	      0.00000000	    -23.44191142	      0.02459953	    -11.89218236
      5.63000000	      3.71801404	      3.38881590	      5.84719441	     -2.32410346	      0.88498050	      0.18066319	     12.20143835	      1.22297473	      0.84387826	    -13.72779217	      5.65889738	     -3.03665899	      0.00000000	     -4.03077010	      4.37454836	      0.76592590	    -48.24892748	     -7.28433601	      5.55463988	      0.00000000	    -23.34871754	      0.53626733	    -11.51704715
      5.64000000	      3.65955024	      2.82591076	      5.85602663	     -2.31403144	      0.88492440	      0.18175905	     11.81911125	      2.00110877	      0.95428574	    -14.11083154	      6.52649900	     -3.20991917	      0.00000000	     -1.95202688	      3.50535793	      0.17770649	    -51.81899766	     -9.97668796	      4.67225725	      0.00000000	    -23.24364847	      1.03920651	    -11.13874114
      5.65000000	      3.64702227	      2.24010803	      5.85733977	     -2.30418480	      0.88485208	      0.18276008	     11.33772913	      2.79756960	      1.00196495	    -14.36428044	      7.36939201	     -3.32285736	      0.00000000	      0.09147341	      2.66082436	     -0.23849762	    -55.22366606	    -12.46430017	      3.49186596	      0.00000000	    -23.22851443	      1.58828720	    -10.71066938
      5.66000000	      3.70509898	      1.66033668	      5.84098115	     -2.29448876	      0.88489293	      0.18373745	     10.71533948	      3.58985718	      0.99320935	    -14.46749838	      8.10922097	     -3.41292943	      0.00000000	      2.03653405	      1.86515823	     -0.52026308	    -58.38305689	    -14.68937276	      2.10193401	      0.00000000	    -23.31691901	      2.12080452	    -10.23805761
      5.67000000	      3.75302726	      1.11400252	      5.78931460	     -2.28501217	      0.88491800	      0.18468855	     10.07379689	      4.34093433	      1.00812712	    -14.49206136	      8.81010660	     -3.45702183	      0.00000000	      3.96308720	      1.15687959	     -0.72762902	    -61.28784211	    -16.42248641	      0.58811103	      0.00000000	    -23.42639161	      2.61164909	     -9.75913435
      5.68000000	      3.78258278	      0.61514761	      5.69169776	     -2.27560003	      0.88499001	      0.18559440	      9.39027387	      5.03255629	      1.09287160	    -14.40620059	      9.47502182	     -3.43358013	      0.00000000	      5.83625209	      0.55833840	     -0.86866314	    -63.87971331	    -17.54094852	     -0.90947082	      0.00000000	    -23.50137661	      3.04556298	     -9.27217775
      5.69000000	      3.86091306	      0.18210392	      5.53051518	     -2.26635432	      0.88523989	      0.18653185	      8.62211587	      5.65616848	      1.18952691	    -14.25179724	     10.03236640	     -3.40171620	      0.00000000	      7.57670394	      0.06253207	     -0.99182658	    -66.14257526	    -17.91787542	     -2.22357197	      0.00000000	    -23.67181740	      3.39329566	     -8.74407925
      5.70000000	      3.94432895	     -0.16332366	      5.31230841	     -2.25721529	      0.88563389	      0.18746674	      7.80325127	      6.17980656	      1.35278831	    -14.02519323	     10.52519982	     -3.34960845	      0.00000000	      9.21270816	     -0.30163177	     -1.10203796	    -68.05716121	    -17.49576563	     -3.26770982	      0.00000000	    -23.86611442	      3.62901495	     -8.18189406
      5.71000000	      4.11946688	     -0.39290708	      5.05051567	     -2.24811912	      0.88632990	      0.18835104	      6.82163302	      6.56872875	      1.56308003	    -13.71372030	     11.00282950	     -3.16574588	      0.00000000	     10.62217048	     -0.51849366	     -1.21542386	    -69.58261826	    -16.29875841	     -4.00406586	      0.00000000	    -24.17420239	      3.74493030	     -7.68018963
      5.72000000	      4.13309336	     -0.53829496	      4.69643488	     -2.23920967	      0.88690242	      0.18939106	      6.02472286	      6.85956844	      1.85378087	    -13.41511722	     11.39683103	     -3.09917284	      0.00000000	     12.12965538	     -0.63398046	     -1.37324493	    -70.80034326	    -14.36631522	     -4.18923665	      0.00000000	    -24.32484457	      3.70511498	     -7.04019606
